# xmcd CD database file
#
# Track frame offsets:
#	150
#	3847
#	28277
#	49730
#	68837
#	85182
#	113642
#	138190
#	157905
#	184975
#
# Disc length: 2763 seconds
#
# Revision: 4
# Processed by: cddbd v1.5.1PL0 Copyright (c) Steve Scherf et al.
# Submitted via: CDex 1.51
#
DISCID=780ac90a
DTITLE=Shadows Fall - Of One Blood
DYEAR=2000
DGENRE=Heavy Metal
TTITLE0=Pain Glass Vision
TTITLE1=Crushing Belial
TTITLE2=Of One Blood
TTITLE3=The First Noble Truth
TTITLE4=Fleshold
TTITLE5=Root Bound Apollo
TTITLE6=Revel In My Loss
TTITLE7=Montauk
TTITLE8=To Ashes
TTITLE9=Serenity
EXTD=YEAR: 2000
EXTT0=
EXTT1=
EXTT2=
EXTT3=
EXTT4=
EXTT5=
EXTT6=
EXTT7=
EXTT8=
EXTT9=
PLAYORDER=
